<svg width="20" height="20" viewBox="0 0 20 20" fill="none" xmlns="http://www.w3.org/2000/svg">
<path d="M13.655 8.61538V4.46154C13.655 3.54348 13.2903 2.66303 12.6411 2.01386C11.9919 1.3647 11.1115 1 10.1934 1C9.27536 1 8.39491 1.3647 7.74574 2.01386C7.09658 2.66303 6.73188 3.54348 6.73188 4.46154V8.61538M17.2143 6.77569L18.3802 17.8526C18.4448 18.4665 17.9648 19 17.3473 19H3.03957C2.89392 19.0002 2.74986 18.9697 2.61676 18.9105C2.48365 18.8514 2.36448 18.7649 2.26698 18.6567C2.16948 18.5485 2.09583 18.421 2.05082 18.2824C2.00582 18.1439 1.99045 17.9975 2.00573 17.8526L3.1725 6.77569C3.19941 6.52052 3.31984 6.28434 3.51058 6.1127C3.70131 5.94106 3.94883 5.84611 4.20542 5.84615H16.1814C16.7131 5.84615 17.159 6.24769 17.2143 6.77569ZM7.07804 8.61538C7.07804 8.70719 7.04157 8.79524 6.97665 8.86015C6.91173 8.92507 6.82369 8.96154 6.73188 8.96154C6.64008 8.96154 6.55203 8.92507 6.48711 8.86015C6.4222 8.79524 6.38573 8.70719 6.38573 8.61538C6.38573 8.52358 6.4222 8.43553 6.48711 8.37062C6.55203 8.3057 6.64008 8.26923 6.73188 8.26923C6.82369 8.26923 6.91173 8.3057 6.97665 8.37062C7.04157 8.43553 7.07804 8.52358 7.07804 8.61538ZM14.0011 8.61538C14.0011 8.70719 13.9646 8.79524 13.8997 8.86015C13.8348 8.92507 13.7468 8.96154 13.655 8.96154C13.5632 8.96154 13.4751 8.92507 13.4102 8.86015C13.3453 8.79524 13.3088 8.70719 13.3088 8.61538C13.3088 8.52358 13.3453 8.43553 13.4102 8.37062C13.4751 8.3057 13.5632 8.26923 13.655 8.26923C13.7468 8.26923 13.8348 8.3057 13.8997 8.37062C13.9646 8.43553 14.0011 8.52358 14.0011 8.61538Z" stroke="#35363D" stroke-width="1.4" stroke-linecap="round" stroke-linejoin="round"/>
</svg>
