<svg width="22" height="22" viewBox="0 0 22 22" fill="none" xmlns="http://www.w3.org/2000/svg">
<path d="M13.6185 15.6585C15.3265 15.4563 17.0046 15.0532 18.618 14.4577C17.2516 12.9441 16.4966 10.9766 16.4996 8.9375V8.29583V8.25C16.4996 6.79131 15.9202 5.39236 14.8887 4.36091C13.8573 3.32946 12.4583 2.75 10.9996 2.75C9.54092 2.75 8.14198 3.32946 7.11053 4.36091C6.07908 5.39236 5.49961 6.79131 5.49961 8.25V8.9375C5.50238 10.9767 4.74702 12.9442 3.38028 14.4577C4.96886 15.0443 6.64361 15.4523 8.3807 15.6585M13.6185 15.6585C11.8787 15.8649 10.1205 15.8649 8.3807 15.6585M13.6185 15.6585C13.7506 16.0709 13.7835 16.5086 13.7144 16.9361C13.6453 17.3635 13.4763 17.7687 13.221 18.1184C12.9658 18.4682 12.6316 18.7528 12.2455 18.949C11.8595 19.1452 11.4326 19.2474 10.9996 19.2474C10.5666 19.2474 10.1397 19.1452 9.75369 18.949C9.36767 18.7528 9.03343 18.4682 8.77818 18.1184C8.52294 17.7687 8.3539 17.3635 8.28483 16.9361C8.21576 16.5086 8.2486 16.0709 8.3807 15.6585M2.86328 6.875C3.12175 5.33955 3.81093 3.90907 4.85061 2.75M17.1486 2.75C18.1883 3.90907 18.8775 5.33955 19.1359 6.875" stroke="#35363D" stroke-width="1.6" stroke-linecap="round" stroke-linejoin="round"/>
</svg>
