<svg width="22" height="22" viewBox="0 0 22 22" fill="none" xmlns="http://www.w3.org/2000/svg">
<path d="M16.5 16.5C18.0188 16.5 19.25 15.2688 19.25 13.75C19.25 12.2312 18.0188 11 16.5 11C14.9812 11 13.75 12.2312 13.75 13.75C13.75 15.2688 14.9812 16.5 16.5 16.5Z" stroke="#35363D" stroke-width="1.6" stroke-linecap="round" stroke-linejoin="round"/>
<path d="M7.33268 11.9166C9.35773 11.9166 10.9993 10.275 10.9993 8.24992C10.9993 6.22487 9.35773 4.58325 7.33268 4.58325C5.30764 4.58325 3.66602 6.22487 3.66602 8.24992C3.66602 10.275 5.30764 11.9166 7.33268 11.9166Z" stroke="#35363D" stroke-width="1.6" stroke-linecap="round" stroke-linejoin="round"/>
<path d="M9.62483 12.3748C8.78369 11.9893 7.85887 11.8221 6.93599 11.8889C6.0131 11.9557 5.12198 12.2543 4.34513 12.7569C3.56827 13.2596 2.93079 13.9501 2.49171 14.7646C2.05262 15.5791 1.82612 16.4912 1.83317 17.4165M19.8915 15.0332L19.0665 14.7582M13.9332 12.7415L13.1082 12.4665M15.2165 17.1415L15.4915 16.3165M17.5082 11.1832L17.7832 10.3582M17.9665 17.1415L17.5998 16.2248M15.3998 11.2748L15.0332 10.3582M13.1082 15.2165L14.0248 14.8498M18.9748 12.6498L19.8915 12.2832" stroke="#35363D" stroke-width="1.6" stroke-linecap="round" stroke-linejoin="round"/>
</svg>
