<svg width="300" height="300" viewBox="0 0 300 300" fill="none" xmlns="http://www.w3.org/2000/svg">
<path d="M150 289.884C224.002 289.884 283.992 255.247 283.992 212.52C283.992 169.793 224.002 135.156 150 135.156C75.9981 135.156 16.0078 169.793 16.0078 212.52C16.0078 255.247 75.9981 289.884 150 289.884Z" fill="#F5F5F5"/>
<path d="M202.734 187.104L247.866 213.156C248.435 213.486 249.08 213.66 249.738 213.66C250.396 213.66 251.042 213.486 251.61 213.156L276.72 198.648C276.889 198.55 277.03 198.409 277.128 198.24C277.226 198.07 277.277 197.878 277.277 197.682C277.277 197.486 277.226 197.294 277.128 197.124C277.03 196.955 276.889 196.814 276.72 196.716L231.6 170.73C231.033 170.403 230.389 170.231 229.734 170.231C229.079 170.231 228.436 170.403 227.868 170.73L202.74 185.166C202.57 185.264 202.43 185.405 202.331 185.575C202.233 185.745 202.181 185.937 202.181 186.133C202.18 186.329 202.231 186.522 202.328 186.692C202.425 186.863 202.565 187.005 202.734 187.104Z" fill="#E0E0E0"/>
<path d="M167.22 177.414L58.6617 240.24C57.7777 240.753 56.7748 241.026 55.7527 241.031C54.7307 241.036 53.725 240.774 52.8357 240.27L24.6358 224.31C24.3428 224.142 24.0995 223.899 23.9302 223.607C23.761 223.314 23.6719 222.983 23.6719 222.645C23.6719 222.307 23.761 221.975 23.9302 221.683C24.0995 221.391 24.3428 221.148 24.6358 220.98L132.99 158.4C133.871 157.893 134.869 157.624 135.886 157.617C136.903 157.611 137.904 157.868 138.792 158.364L167.196 174.282C167.474 174.437 167.706 174.663 167.869 174.937C168.031 175.21 168.118 175.522 168.12 175.841C168.123 176.159 168.041 176.473 167.882 176.749C167.724 177.025 167.496 177.255 167.22 177.414Z" fill="#E0E0E0"/>
<path d="M184.596 240.468C201.048 240.468 214.386 232.766 214.386 223.266C214.386 213.766 201.048 206.064 184.596 206.064C168.143 206.064 154.806 213.766 154.806 223.266C154.806 232.766 168.143 240.468 184.596 240.468Z" fill="#E0E0E0"/>
<path d="M249.03 233.16C254.766 233.16 259.416 230.473 259.416 227.16C259.416 223.846 254.766 221.16 249.03 221.16C243.294 221.16 238.644 223.846 238.644 227.16C238.644 230.473 243.294 233.16 249.03 233.16Z" fill="#E0E0E0"/>
<path d="M249.365 132.624L249.377 211.806L275.021 196.986V117.882L249.365 132.624Z" fill="#E6E6E6"/>
<path d="M205.812 186.654L249.378 211.806V132.696L205.824 107.622L205.812 186.654Z" fill="#EBEBEB"/>
<path d="M205.812 107.544L249.378 132.696L275.022 117.882L231.474 92.8018L205.812 107.544Z" fill="#F5F5F5"/>
<path d="M210.918 136.5L244.02 155.616C244.164 155.699 244.328 155.742 244.495 155.742C244.661 155.742 244.825 155.698 244.97 155.615C245.114 155.532 245.234 155.412 245.318 155.268C245.402 155.124 245.447 154.961 245.448 154.794V138C245.445 137.585 245.333 137.178 245.122 136.821C244.911 136.464 244.61 136.169 244.248 135.966L211.2 116.922C211.055 116.839 210.89 116.795 210.723 116.796C210.556 116.796 210.392 116.841 210.247 116.925C210.102 117.008 209.982 117.129 209.899 117.274C209.815 117.419 209.772 117.583 209.772 117.75V134.466C209.768 134.876 209.872 135.279 210.073 135.636C210.274 135.993 210.565 136.291 210.918 136.5Z" fill="#FAFAFA"/>
<path d="M230.513 132.294C230.399 132.293 230.287 132.262 230.189 132.204L224.345 128.844C224.211 128.749 224.117 128.608 224.081 128.447C224.045 128.287 224.071 128.119 224.153 127.976C224.235 127.833 224.367 127.727 224.523 127.676C224.68 127.626 224.85 127.636 224.999 127.704L230.843 131.07C230.959 131.146 231.047 131.256 231.096 131.386C231.145 131.515 231.151 131.657 231.115 131.79C231.078 131.923 231 132.042 230.892 132.128C230.784 132.214 230.651 132.264 230.513 132.27V132.294Z" fill="#E0E0E0"/>
<path d="M210.917 159.948L244.019 179.058C244.164 179.14 244.328 179.184 244.495 179.184C244.661 179.183 244.825 179.14 244.969 179.056C245.114 178.973 245.234 178.854 245.318 178.71C245.402 178.566 245.446 178.402 245.447 178.236V161.436C245.445 161.021 245.332 160.614 245.121 160.257C244.911 159.9 244.609 159.605 244.247 159.402L211.199 140.4C211.055 140.317 210.891 140.273 210.724 140.273C210.558 140.274 210.394 140.317 210.25 140.401C210.105 140.484 209.985 140.603 209.901 140.747C209.817 140.891 209.773 141.055 209.771 141.222V157.938C209.772 158.343 209.879 158.741 210.079 159.094C210.28 159.446 210.569 159.74 210.917 159.948Z" fill="#FAFAFA"/>
<path d="M230.513 155.736C230.4 155.734 230.289 155.706 230.189 155.652L224.345 152.286C224.211 152.191 224.117 152.05 224.081 151.889C224.045 151.729 224.071 151.561 224.153 151.418C224.235 151.275 224.367 151.168 224.523 151.118C224.68 151.068 224.85 151.078 224.999 151.146L230.843 154.512C230.959 154.588 231.047 154.698 231.096 154.828C231.145 154.957 231.151 155.099 231.115 155.232C231.078 155.365 231 155.484 230.892 155.57C230.784 155.656 230.651 155.706 230.513 155.712V155.736Z" fill="#E0E0E0"/>
<path d="M210.918 183.39L244.02 202.5C244.164 202.583 244.328 202.626 244.495 202.626C244.661 202.626 244.825 202.582 244.97 202.499C245.114 202.416 245.234 202.296 245.318 202.152C245.402 202.008 245.447 201.845 245.448 201.678V184.878C245.445 184.463 245.332 184.057 245.121 183.699C244.911 183.342 244.609 183.047 244.248 182.844L211.2 163.8C211.055 163.717 210.891 163.674 210.725 163.674C210.558 163.674 210.394 163.718 210.25 163.801C210.105 163.884 209.985 164.004 209.901 164.148C209.817 164.292 209.773 164.455 209.772 164.622V181.344C209.766 181.756 209.87 182.161 210.071 182.52C210.272 182.88 210.564 183.179 210.918 183.39Z" fill="#FAFAFA"/>
<path d="M230.513 179.178C230.4 179.179 230.288 179.15 230.189 179.094L224.345 175.728C224.271 175.685 224.205 175.628 224.153 175.56C224.101 175.491 224.062 175.414 224.04 175.331C224.018 175.248 224.012 175.161 224.023 175.076C224.034 174.99 224.062 174.908 224.105 174.834C224.148 174.759 224.205 174.694 224.274 174.642C224.342 174.589 224.42 174.551 224.503 174.529C224.586 174.508 224.673 174.503 224.758 174.515C224.844 174.527 224.925 174.556 224.999 174.6L230.843 177.96C230.918 178.003 230.983 178.06 231.036 178.128C231.088 178.196 231.126 178.274 231.149 178.357C231.171 178.44 231.177 178.527 231.165 178.612C231.154 178.697 231.126 178.779 231.083 178.854C231.026 178.954 230.943 179.037 230.843 179.094C230.742 179.151 230.629 179.18 230.513 179.178Z" fill="#E0E0E0"/>
<path d="M233.046 52.8901V74.0521L251.376 84.6301V63.4681L233.046 52.8901Z" fill="#FAFAFA"/>
<path d="M235.032 54.03L251.4 63.468V82.338L235.056 72.906V54.03M234.06 52.314L233.07 52.914V74.076L251.4 84.63L252.39 84.03V62.898L234.036 52.314H234.06Z" fill="#E0E0E0"/>
<path d="M234.036 54.5998L250.38 64.0378V82.9078L234.036 73.4698V54.5998ZM233.046 52.8838V74.0458L251.4 84.6298V63.4678L233.046 52.8898V52.8838Z" fill="#EBEBEB"/>
<path d="M235.734 69.2099L249.6 77.2139L245.502 66.5579L242.67 69.9239L239.766 65.7959L235.734 69.2099Z" fill="#E0E0E0"/>
<path d="M240.546 62.5621C240.569 63.0011 240.696 63.4283 240.916 63.8089C241.136 64.1894 241.443 64.5126 241.812 64.7521C242.508 65.1541 243.078 64.8241 243.078 64.0201C243.053 63.5814 242.926 63.1546 242.706 62.7741C242.486 62.3937 242.18 62.0703 241.812 61.8301C241.11 61.4281 240.546 61.7521 240.546 62.5621Z" fill="#E0E0E0"/>
<path d="M256.866 78.5039V95.3639L271.464 103.794V86.9339L256.866 78.5039Z" fill="#FAFAFA"/>
<path d="M258.444 79.422L271.464 86.934V102L258.444 94.482V79.482M257.652 78.108L256.866 78.564V95.424L271.464 103.8L272.256 103.344V86.484L257.652 78.084V78.108Z" fill="#E0E0E0"/>
<path d="M257.652 79.8779L270.672 87.3899V102.426L257.652 94.9079V79.8779ZM256.866 78.5039V95.3639L271.464 103.8V86.9399L256.866 78.5399V78.5039Z" fill="#EBEBEB"/>
<path d="M259.008 91.5061L270.048 97.8841L266.79 89.3941L264.528 92.0821L262.218 88.7881L259.008 91.5061Z" fill="#E0E0E0"/>
<path d="M262.836 86.214C262.855 86.5637 262.956 86.904 263.132 87.2073C263.307 87.5106 263.551 87.7685 263.844 87.96C264.402 88.278 264.852 88.02 264.852 87.36C264.834 87.0101 264.733 86.6695 264.558 86.366C264.382 86.0625 264.138 85.8048 263.844 85.614C263.286 85.308 262.836 85.572 262.836 86.214Z" fill="#E0E0E0"/>
<path d="M249.642 211.872C249.642 211.872 243.258 205.638 246.894 195.198C248.928 189.348 255.672 185.052 259.494 184.644C258.222 186.155 257.209 187.866 256.494 189.708L251.658 192.924L256.104 191.532L255.156 195.336C255.156 195.336 251.022 197.838 250.41 198.384L254.868 197.22C254.868 197.22 254.544 207.996 249.642 211.872Z" fill="#1C5793"/>
<path opacity="0.4" d="M249.642 211.872C249.642 211.872 243.258 205.638 246.894 195.198C248.928 189.348 255.672 185.052 259.494 184.644C258.222 186.155 257.209 187.866 256.494 189.708L251.658 192.924L256.104 191.532L255.156 195.336C255.156 195.336 251.022 197.838 250.41 198.384L254.868 197.22C254.868 197.22 254.544 207.996 249.642 211.872Z" fill="black"/>
<path d="M249.642 211.872C249.642 211.872 246.336 198.828 251.226 191.22C251.226 191.22 245.496 197.934 249.642 211.872Z" fill="white"/>
<path d="M256.944 213.636L249.144 213.54H249.066L241.266 213.636C241.266 213.636 241.176 223.236 244.14 227.172C244.962 228.216 246.876 228.972 249.114 228.972C251.352 228.972 253.278 228.234 254.094 227.172C257.034 223.248 256.944 213.636 256.944 213.636Z" fill="#37474F"/>
<path d="M256.944 213.636C256.944 215.964 253.434 217.836 249.096 217.836C244.758 217.836 241.248 215.946 241.248 213.636C241.248 211.326 244.764 209.436 249.096 209.436C253.428 209.436 256.944 211.308 256.944 213.636Z" fill="#455A64"/>
<path d="M249.095 212.52C251.795 212.52 254.081 213.384 254.891 214.584C255.089 214.307 255.197 213.976 255.203 213.636C255.203 211.974 252.467 210.636 249.095 210.636C245.723 210.636 242.987 211.986 242.987 213.636C242.993 213.978 243.104 214.309 243.305 214.584C244.109 213.384 246.395 212.52 249.095 212.52Z" fill="#263238"/>
<path d="M249.096 212.52C246.396 212.52 244.11 213.384 243.306 214.584C244.11 215.784 246.396 216.654 249.096 216.654C251.796 216.654 254.082 215.784 254.892 214.584C254.082 213.384 251.796 212.52 249.096 212.52Z" fill="#E0E0E0"/>
<path d="M249.192 215.106C249.192 215.106 246.192 214.992 243.576 210.972C242.502 209.316 241.986 208.446 241.986 208.446L246.186 208.128L241.464 206.928L239.232 203.514L243.15 203.22C241.534 202.657 239.852 202.308 238.146 202.182C238.146 202.182 234.546 195.798 233.472 194.886C236.215 195.053 238.897 195.77 241.358 196.993C243.82 198.217 246.01 199.922 247.8 202.008C253.722 209.034 250.074 215.286 249.192 215.106Z" fill="#1C5793"/>
<path d="M249.191 215.106C249.191 215.106 251.087 203.706 238.991 196.854C239.009 196.854 251.543 202.878 249.191 215.106Z" fill="white"/>
<path d="M249.192 215.106C249.192 215.106 251.934 215.286 254.652 211.908C255.774 210.51 256.32 209.772 256.32 209.772L252.546 209.094L256.92 208.494L259.254 205.62L255.744 204.99C257.255 204.633 258.806 204.478 260.358 204.528C260.358 204.528 264.222 199.128 265.26 198.384C262.781 198.274 260.304 198.66 257.976 199.522C255.648 200.383 253.516 201.702 251.706 203.4C245.682 209.202 248.4 215.184 249.192 215.106Z" fill="#1C5793"/>
<path opacity="0.2" d="M249.192 215.106C249.192 215.106 251.934 215.286 254.652 211.908C255.774 210.51 256.32 209.772 256.32 209.772L252.546 209.094L256.92 208.494L259.254 205.62L255.744 204.99C257.255 204.633 258.806 204.478 260.358 204.528C260.358 204.528 264.222 199.128 265.26 198.384C262.781 198.274 260.304 198.66 257.976 199.522C255.648 200.383 253.516 201.702 251.706 203.4C245.682 209.202 248.4 215.184 249.192 215.106Z" fill="black"/>
<path d="M249.192 215.106C249.192 215.106 248.556 204.648 260.1 199.596C260.1 199.596 248.226 203.85 249.192 215.106Z" fill="white"/>
<path d="M130.074 69.5101L127.344 68.4001L127.068 68.2861H127.038C126.548 68.1093 126.026 68.0419 125.508 68.0886C124.99 68.1352 124.488 68.2948 124.038 68.5561L30.3539 122.628C28.3851 123.763 26.7501 125.396 25.6135 127.364C24.4769 129.331 23.879 131.564 23.8799 133.836V215.4C23.8804 216.267 24.109 217.118 24.5429 217.869C24.9768 218.619 25.6006 219.242 26.3516 219.675C27.1026 220.108 27.9543 220.336 28.8212 220.335C29.688 220.335 30.5395 220.106 31.2899 219.672L125.064 165.534C126.402 164.761 127.513 163.649 128.285 162.31C129.057 160.972 129.463 159.453 129.462 157.908V71.7001C129.464 71.0827 129.307 70.4752 129.006 69.9361L130.074 69.5101Z" fill="#1C5793"/>
<path opacity="0.3" d="M130.074 69.5101L127.344 68.4001L127.068 68.2861H127.038C126.548 68.1093 126.026 68.0419 125.508 68.0886C124.99 68.1352 124.488 68.2948 124.038 68.5561L30.3539 122.628C28.3851 123.763 26.7501 125.396 25.6135 127.364C24.4769 129.331 23.879 131.564 23.8799 133.836V215.4C23.8804 216.267 24.109 217.118 24.5429 217.869C24.9768 218.619 25.6006 219.242 26.3516 219.675C27.1026 220.108 27.9543 220.336 28.8212 220.335C29.688 220.335 30.5395 220.106 31.2899 219.672L125.064 165.534C126.402 164.761 127.513 163.649 128.285 162.31C129.057 160.972 129.463 159.453 129.462 157.908V71.7001C129.464 71.0827 129.307 70.4752 129.006 69.9361L130.074 69.5101Z" fill="black"/>
<path d="M131.945 72.6842V158.922C131.946 160.467 131.54 161.986 130.767 163.324C129.993 164.661 128.881 165.772 127.541 166.542L33.7674 220.686C33.0163 221.118 32.1647 221.346 31.298 221.345C30.4313 221.345 29.58 221.116 28.8295 220.683C28.0789 220.249 27.4555 219.626 27.0216 218.876C26.5877 218.126 26.3587 217.275 26.3574 216.408V134.808C26.3579 132.572 26.9389 130.374 28.0434 128.43C28.88 126.988 30.088 125.797 31.5414 124.98L128.399 69.0542C129.339 69.0835 130.231 69.4742 130.889 70.1449C131.547 70.8156 131.922 71.7144 131.933 72.6542L131.945 72.6842Z" fill="#1C5793"/>
<path opacity="0.1" d="M131.945 72.6842V158.922C131.946 160.467 131.54 161.986 130.767 163.324C129.993 164.661 128.881 165.772 127.541 166.542L33.7674 220.686C33.0163 221.118 32.1647 221.346 31.298 221.345C30.4313 221.345 29.58 221.116 28.8295 220.683C28.0789 220.249 27.4555 219.626 27.0216 218.876C26.5877 218.126 26.3587 217.275 26.3574 216.408V134.808C26.3579 132.572 26.9389 130.374 28.0434 128.43C28.88 126.988 30.088 125.797 31.5414 124.98L128.399 69.0542C129.339 69.0835 130.231 69.4742 130.889 70.1449C131.547 70.8156 131.922 71.7144 131.933 72.6542L131.945 72.6842Z" fill="black"/>
<path d="M127.542 166.542L33.7678 220.686C33.0419 221.111 32.2188 221.341 31.378 221.355C30.5372 221.368 29.707 221.165 28.9678 220.764L84.9598 136.494L131.946 158.916C131.946 160.462 131.539 161.981 130.766 163.32C129.993 164.658 128.881 165.77 127.542 166.542Z" fill="#1C5793"/>
<path opacity="0.2" d="M127.542 166.542L33.7678 220.686C33.0419 221.111 32.2188 221.341 31.378 221.355C30.5372 221.368 29.707 221.165 28.9678 220.764L84.9598 136.494L131.946 158.916C131.946 160.462 131.539 161.981 130.766 163.32C129.993 164.658 128.881 165.77 127.542 166.542Z" fill="black"/>
<path d="M130.368 69.6962L92.1299 149.682C91.3768 151.254 90.3073 152.653 88.9885 153.792C87.6697 154.931 86.1299 155.785 84.4655 156.302C82.8011 156.818 81.0481 156.986 79.3161 156.793C77.5841 156.601 75.9104 156.053 74.3999 155.184L28.0439 128.448C28.8352 127.043 29.9894 125.876 31.3859 125.07L128.4 69.0542C129.105 69.0709 129.789 69.2941 130.368 69.6962Z" fill="#1C5793"/>
<path d="M37.668 102.768L65.136 86.9042V67.2422L45.174 78.2462C42.9004 79.4976 41.0044 81.3365 39.6841 83.5708C38.3638 85.8051 37.6675 88.3529 37.668 90.9482V102.768Z" fill="#1C5793"/>
<path opacity="0.5" d="M37.668 102.768L65.136 86.9042V67.2422L45.174 78.2462C42.9004 79.4976 41.0044 81.3365 39.6841 83.5708C38.3638 85.8051 37.6675 88.3529 37.668 90.9482V102.768Z" fill="white"/>
<path d="M151.2 26.622L148.686 25.2C145.493 23.3538 141.869 22.3852 138.18 22.3926C134.492 22.4 130.871 23.3831 127.686 25.242L49.128 71.01C45.6409 73.0408 42.7475 75.9507 40.7366 79.4493C38.7256 82.9479 37.6676 86.9127 37.668 90.948C37.6677 88.875 38.2149 86.8387 39.2541 85.045C40.2933 83.2513 41.7878 81.7638 43.5864 80.733C45.385 79.7022 47.4238 79.1646 49.4968 79.1746C51.5698 79.1846 53.6034 79.7419 55.392 80.79L58.68 82.716C62.1033 84.7198 64.9428 87.5843 66.9164 91.0252C68.89 94.466 69.9289 98.3634 69.93 102.33V219.054L64.572 232.656L74.634 226.53L155.52 179.598C158.393 177.932 160.777 175.54 162.434 172.662C164.09 169.784 164.961 166.521 164.958 163.2V50.496C164.957 45.6601 163.686 40.9093 161.271 36.7193C158.857 32.5293 155.384 29.0473 151.2 26.622Z" fill="#1C5793"/>
<path opacity="0.7" d="M151.2 26.622L148.686 25.2C145.493 23.3538 141.869 22.3852 138.18 22.3926C134.492 22.4 130.871 23.3831 127.686 25.242L49.128 71.01C45.6409 73.0408 42.7475 75.9507 40.7366 79.4493C38.7256 82.9479 37.6676 86.9127 37.668 90.948C37.6677 88.875 38.2149 86.8387 39.2541 85.045C40.2933 83.2513 41.7878 81.7638 43.5864 80.733C45.385 79.7022 47.4238 79.1646 49.4968 79.1746C51.5698 79.1846 53.6034 79.7419 55.392 80.79L58.68 82.716C62.1033 84.7198 64.9428 87.5843 66.9164 91.0252C68.89 94.466 69.9289 98.3634 69.93 102.33V219.054L64.572 232.656L74.634 226.53L155.52 179.598C158.393 177.932 160.777 175.54 162.434 172.662C164.09 169.784 164.961 166.521 164.958 163.2V50.496C164.957 45.6601 163.686 40.9093 161.271 36.7193C158.857 32.5293 155.384 29.0473 151.2 26.622Z" fill="white"/>
<path d="M40.9258 222.048C40.9258 222.048 46.5598 230.286 55.6138 233.016C65.3518 235.95 69.9298 229.494 69.9298 220.932V205.446L40.9258 222.048Z" fill="#1C5793"/>
<path opacity="0.5" d="M40.9258 222.048C40.9258 222.048 46.5598 230.286 55.6138 233.016C65.3518 235.95 69.9298 229.494 69.9298 220.932V205.446L40.9258 222.048Z" fill="white"/>
<path d="M87.4323 139.2C87.2377 139.197 87.0494 139.131 86.8959 139.011C86.7425 138.891 86.6323 138.725 86.582 138.537C86.5318 138.349 86.5443 138.149 86.6176 137.969C86.691 137.789 86.8211 137.637 86.9883 137.538L146.988 102.882C147.193 102.764 147.436 102.732 147.664 102.794C147.891 102.855 148.086 103.004 148.203 103.209C148.321 103.413 148.353 103.656 148.291 103.884C148.23 104.112 148.081 104.306 147.876 104.424L87.8763 139.08C87.741 139.157 87.5881 139.198 87.4323 139.2Z" fill="white"/>
<path d="M87.4321 152.49C87.237 152.49 87.0474 152.425 86.8927 152.306C86.738 152.187 86.6267 152.02 86.5762 151.832C86.5257 151.643 86.5386 151.444 86.6131 151.263C86.6875 151.083 86.8193 150.932 86.9881 150.834L146.988 116.172C147.193 116.054 147.435 116.022 147.663 116.084C147.891 116.145 148.085 116.294 148.203 116.499C148.321 116.703 148.353 116.946 148.291 117.174C148.23 117.402 148.081 117.596 147.876 117.714L87.8761 152.4C87.738 152.467 87.5853 152.498 87.4321 152.49Z" fill="white"/>
<path d="M87.4321 165.774C87.237 165.774 87.0474 165.709 86.8927 165.59C86.738 165.471 86.6267 165.304 86.5762 165.116C86.5257 164.927 86.5386 164.727 86.6131 164.547C86.6875 164.367 86.8193 164.216 86.9881 164.118L146.988 129.462C147.191 129.356 147.427 129.333 147.646 129.397C147.866 129.461 148.052 129.607 148.166 129.805C148.281 130.003 148.315 130.238 148.26 130.46C148.206 130.682 148.069 130.875 147.876 130.998L87.8761 165.654C87.7408 165.731 87.5879 165.772 87.4321 165.774Z" fill="white"/>
<path d="M87.4321 179.058C87.237 179.058 87.0474 178.993 86.8927 178.874C86.738 178.755 86.6267 178.589 86.5762 178.4C86.5257 178.212 86.5386 178.012 86.6131 177.831C86.6875 177.651 86.8193 177.5 86.9881 177.402L146.988 142.746C147.191 142.641 147.427 142.617 147.646 142.681C147.866 142.745 148.052 142.892 148.166 143.09C148.281 143.287 148.315 143.522 148.26 143.744C148.206 143.966 148.069 144.159 147.876 144.282L87.8761 178.938C87.7419 179.018 87.5883 179.06 87.4321 179.058Z" fill="white"/>
<path d="M87.4321 192.342C87.237 192.341 87.0474 192.277 86.8927 192.158C86.738 192.039 86.6267 191.872 86.5762 191.684C86.5257 191.495 86.5386 191.295 86.6131 191.115C86.6875 190.935 86.8193 190.784 86.9881 190.686L146.988 156.03C147.191 155.924 147.427 155.901 147.646 155.965C147.866 156.029 148.052 156.175 148.166 156.373C148.281 156.571 148.315 156.806 148.26 157.028C148.206 157.25 148.069 157.443 147.876 157.566L87.8761 192.222C87.7419 192.302 87.5883 192.343 87.4321 192.342Z" fill="white"/>
<path d="M126.834 182.874C126.678 182.875 126.524 182.834 126.389 182.756C126.254 182.678 126.143 182.566 126.066 182.43C125.952 182.227 125.922 181.988 125.983 181.764C126.043 181.539 126.19 181.348 126.39 181.23L147 169.314C147.203 169.209 147.438 169.185 147.658 169.249C147.877 169.313 148.064 169.459 148.178 169.657C148.293 169.855 148.326 170.09 148.272 170.312C148.218 170.534 148.08 170.727 147.888 170.85L127.278 182.76C127.142 182.835 126.989 182.875 126.834 182.874Z" fill="white"/>
<path d="M129.216 89.184L111.924 99.168V90.6481C111.924 84.7261 115.524 77.844 119.97 75.276L121.17 74.586C125.61 72.018 129.216 74.7421 129.216 80.6641V89.184Z" fill="#1C5793"/>
<path d="M133.242 92.0099L107.898 106.644L111.924 97.3199L129.216 87.3359L133.242 92.0099Z" fill="#1C5793"/>
<path d="M120.6 77.7418C119.85 78.1738 119.244 77.8258 119.244 76.9618V73.6438C119.27 73.1738 119.407 72.7165 119.642 72.309C119.878 71.9014 120.206 71.555 120.6 71.2978C121.344 70.8658 121.95 71.2138 121.95 72.0778V75.4018C121.924 75.8702 121.788 76.326 121.553 76.7324C121.319 77.1387 120.992 77.4845 120.6 77.7418Z" fill="#1C5793"/>
<path d="M117.69 102.24C117.762 103.962 119.022 104.64 120.57 103.746C121.382 103.215 122.062 102.508 122.56 101.676C123.057 100.845 123.36 99.9112 123.444 98.9458L117.69 102.24Z" fill="#1C5793"/>
<path d="M180.9 112.452C179.601 112.351 178.298 112.572 177.105 113.096C175.912 113.619 174.866 114.428 174.06 115.452C171.39 118.968 165.738 127.284 165.738 127.284C165.738 127.284 163.374 124.662 161.826 122.82C160.278 120.978 158.826 119.418 158.826 119.418C158.623 118.426 158.47 117.425 158.37 116.418C158.238 114.99 158.046 114.018 157.002 113.04C155.958 112.062 155.16 111.144 155.076 110.4C154.992 109.656 154.476 108.912 153.816 109.674C153.156 110.436 153.216 112.776 154.596 114.336C154.596 114.336 152.13 113.19 150.996 111.846C149.862 110.502 148.398 108.162 147.75 108.81C147.102 109.458 145.86 116.436 147.75 117.99C149.64 119.544 154.314 122.19 154.314 122.19C154.314 122.19 160.422 137.142 164.718 137.142C169.014 137.142 176.118 126.09 176.118 126.09L180.9 112.452Z" fill="#FFA8A7"/>
<path d="M173.274 190.512L174.6 210.798C174.6 210.798 175.8 212.946 178.11 212.946L180.21 210.654C180.182 207.941 180.409 205.231 180.888 202.56C181.668 198.462 183.18 192.468 183.618 189.006L173.274 190.512Z" fill="#FFA8A7"/>
<path d="M174.469 144.684C174.469 144.684 173.413 151.506 172.891 158.142C172.477 163.434 172.207 170.772 172.111 173.526C172.088 174.246 172.104 174.967 172.159 175.686L173.275 190.512C173.275 190.512 179.833 193.392 183.631 189.006C183.631 189.006 184.093 184.758 183.433 181.806C183.046 179.942 183.093 178.015 183.571 176.172L187.681 159.66V144.54L174.469 144.684Z" fill="#37474F"/>
<path d="M177.654 150.342C177.932 151.555 178.536 152.668 179.401 153.562C180.266 154.456 181.359 155.095 182.562 155.412L185.016 170.352L188.616 157.26V150.342H177.654Z" fill="#263238"/>
<path d="M190.41 193.536L194.556 216.402H199.038C199.038 216.402 200.736 197.136 200.646 191.88L190.41 193.536Z" fill="#FFA8A7"/>
<path d="M176.562 144.534C176.562 144.534 175.686 153.36 183.582 154.134L187.68 180.42L190.41 193.53C190.41 193.53 196.806 197.7 200.646 191.874C200.646 191.874 201.036 185.274 199.446 180.726C199.031 179.544 198.86 178.291 198.942 177.042C199.386 170.598 200.61 151.692 200.01 147.504L196.062 142.338L176.562 144.534Z" fill="#37474F"/>
<path d="M190.938 113.4H194.946L197.628 126.786L195.864 132.516C195.492 133.704 195.577 134.988 196.104 136.116C197.304 138.732 199.53 143.844 200.016 147.516C198.894 147.598 197.771 147.375 196.766 146.868C195.761 146.362 194.912 145.593 194.31 144.642C194.31 144.642 190.944 149.076 182.754 149.076C178.782 149.076 175.554 146.154 174.468 144.69L175.938 138.054C176.06 137.515 176.105 136.962 176.07 136.41C175.992 135.036 175.842 132.21 175.878 130.062C175.878 130.062 172.074 128.55 173.052 123.87C174.03 119.19 180.9 112.47 180.9 112.47L183.846 112.584L190.938 113.4Z" fill="#1C5793"/>
<path d="M181.273 87.5999C181.273 87.5999 176.413 85.9139 175.225 90.8879C174.037 95.8619 177.697 100.692 172.225 102.348C172.225 102.348 175.453 105.036 178.297 100.014L180.697 110.214C180.697 110.214 180.697 110.772 179.845 111.198C179.845 111.198 193.645 114.27 196.303 107.382C196.669 107.778 196.919 108.268 197.025 108.798C197.13 109.327 197.088 109.875 196.903 110.382C196.903 110.382 200.977 108.732 199.831 103.458C199.831 103.458 203.053 103.368 203.821 100.746C203.821 100.746 198.667 100.992 198.697 95.3039C198.733 88.7339 195.277 89.6879 195.277 89.6879C195.277 89.6879 191.047 83.3999 181.273 87.5999Z" fill="#455A64"/>
<path d="M183.847 108.18V112.566C183.847 112.566 179.305 117.618 183.733 118.02C188.161 118.422 190.933 113.4 190.933 113.4V104.124L183.847 108.18Z" fill="#FFA8A7"/>
<path d="M190.86 102.66V102.912C189.282 109.152 185.172 110.508 183.846 110.826L183.798 101.172L190.662 101.136L190.86 102.66Z" fill="#F28F8F"/>
<path d="M184.297 88.8002C181.675 89.0162 176.227 90.9302 176.149 97.8362C176.071 104.742 177.121 110.01 180.703 110.226C184.285 110.442 192.283 107.226 192.655 98.2262C193.027 89.2262 186.847 88.5602 184.297 88.8002Z" fill="#FFA8A7"/>
<path d="M180.978 100.578L181.044 104.634L178.656 103.944L180.978 100.578Z" fill="#F28F8F"/>
<path d="M184.543 100.47C184.546 100.634 184.501 100.796 184.412 100.934C184.324 101.072 184.196 101.181 184.045 101.247C183.895 101.313 183.728 101.332 183.567 101.302C183.405 101.273 183.256 101.196 183.138 101.082C183.02 100.967 182.939 100.82 182.905 100.66C182.871 100.499 182.885 100.332 182.946 100.179C183.007 100.027 183.113 99.8962 183.248 99.8037C183.384 99.7111 183.544 99.6611 183.709 99.6599C183.817 99.6575 183.924 99.6766 184.025 99.7162C184.126 99.7557 184.217 99.8149 184.295 99.8903C184.373 99.9657 184.435 100.056 184.477 100.155C184.519 100.255 184.542 100.362 184.543 100.47Z" fill="#263238"/>
<path d="M179.1 99.9721C179.103 100.081 179.084 100.188 179.044 100.289C179.005 100.39 178.945 100.483 178.87 100.561C178.795 100.639 178.705 100.701 178.605 100.744C178.506 100.787 178.399 100.811 178.29 100.812C178.126 100.816 177.965 100.77 177.827 100.682C177.689 100.594 177.58 100.467 177.514 100.316C177.448 100.166 177.428 99.9996 177.457 99.8382C177.486 99.6768 177.562 99.5276 177.676 99.4095C177.79 99.2914 177.936 99.2099 178.097 99.1751C178.257 99.1403 178.424 99.1539 178.577 99.2142C178.729 99.2744 178.86 99.3786 178.954 99.5136C179.047 99.6485 179.098 99.8081 179.1 99.9721Z" fill="#263238"/>
<path d="M183.211 105.948C182.311 106.178 181.426 106.458 180.559 106.788C180.559 106.788 180.313 105.378 181.483 105.054C181.83 104.981 182.191 105.03 182.506 105.193C182.821 105.356 183.07 105.623 183.211 105.948Z" fill="#F28F8F"/>
<path d="M178.8 96.918L177.198 97.896C177.198 97.896 177.798 98.532 178.434 98.136C178.611 97.9933 178.74 97.8008 178.805 97.5835C178.871 97.3662 178.869 97.1342 178.8 96.918Z" fill="#263238"/>
<path d="M188.508 100.446C188.508 100.446 188.448 103.002 190.122 103.002H193.404V97.4638C193.404 91.2478 188.688 84.7558 178.656 89.8918C178.656 89.8918 178.068 98.5378 188.508 100.446Z" fill="#455A64"/>
<path d="M177.45 102.864C175.89 102.864 174.618 101.784 174.618 100.464C174.618 99.144 175.89 98.064 177.45 98.064C179.01 98.064 180.282 99.144 180.282 100.464C180.282 101.784 179.01 102.864 177.45 102.864ZM177.45 98.526C176.16 98.526 175.11 99.39 175.11 100.446C175.11 101.502 176.16 102.372 177.45 102.372C178.74 102.372 179.79 101.508 179.79 100.446C179.79 99.384 178.74 98.526 177.45 98.526Z" fill="#1C5793"/>
<path d="M184.416 102.882C182.67 102.882 181.242 101.79 181.242 100.446C181.242 99.1019 182.67 98.0459 184.416 98.0459C186.162 98.0459 187.59 99.1379 187.59 100.446C187.59 101.754 186.168 102.882 184.416 102.882ZM184.416 98.5379C182.958 98.5379 181.764 99.3959 181.764 100.446C181.764 101.496 182.964 102.36 184.416 102.36C185.868 102.36 187.068 101.502 187.068 100.446C187.068 99.3899 185.88 98.5379 184.416 98.5379Z" fill="#1C5793"/>
<path d="M181.506 100.188H180.036V100.71H181.506V100.188Z" fill="#1C5793"/>
<path d="M191.124 100.188H187.332V100.71H191.124V100.188Z" fill="#1C5793"/>
<path d="M190.111 102.666C190.09 102.033 190.213 101.403 190.471 100.824C190.596 100.463 190.824 100.148 191.127 99.9151C191.43 99.6827 191.794 99.544 192.175 99.516C194.131 99.486 194.371 101.37 194.341 102.036C194.251 103.794 192.811 105.678 190.141 105.72L190.111 102.666Z" fill="#FFA8A7"/>
<path d="M194.947 113.4C194.947 113.4 190.375 124.332 197.629 126.786L199.219 123.39C199.219 123.39 212.491 111.234 215.737 108.57C218.983 105.906 214.819 101.97 210.793 98.2801C206.767 94.5901 202.729 91.0201 202.729 91.0201L200.713 87.4501C200.491 87.0602 200.189 86.7217 199.827 86.457C199.465 86.1922 199.051 86.0072 198.613 85.9141C196.501 85.4761 192.523 84.714 190.375 84.84C187.375 85.002 191.905 88.74 192.667 88.74C193.353 88.7605 194.023 88.9566 194.612 89.3095C195.201 89.6624 195.69 90.1604 196.033 90.756C196.945 92.382 197.107 95.3101 200.017 95.1781L206.761 105.252L194.947 113.4Z" fill="#FFA8A7"/>
<path d="M206.76 105.252L209.1 108.246L205.452 106.158L206.76 105.252Z" fill="#F28F8F"/>
<path d="M165.738 127.29L167.82 129.696L166.614 126.012L165.738 127.29Z" fill="#F28F8F"/>
<path opacity="0.2" d="M183.721 130.278C183.721 130.278 189.721 130.764 191.581 125.064C191.581 125.064 191.653 132.33 183.721 130.278Z" fill="black"/>
<path d="M174.03 211.674C174.03 211.674 173.196 209.058 174.486 208.92C175.776 208.782 178.056 209.466 178.284 210.15C178.423 210.602 178.48 211.076 178.452 211.548C179.081 211.335 179.677 211.034 180.222 210.654V209.688C180.222 209.688 181.566 209.82 181.668 210.828C181.77 211.836 181.788 213.066 181.83 214.212C181.908 216.528 182.25 218.076 179.616 218.76C177.738 219.232 176.042 220.251 174.744 221.688C173.844 222.639 172.722 223.352 171.48 223.766C170.238 224.179 168.912 224.28 167.622 224.058C163.656 223.506 163.884 220.158 165.282 219.084C166.626 218.095 168.062 217.239 169.572 216.528L174.03 211.674Z" fill="#1C5793"/>
<path d="M172.614 219.072C172.555 219.074 172.496 219.058 172.445 219.027C172.394 218.996 172.353 218.952 172.326 218.898C171.69 217.874 170.678 217.139 169.506 216.852C169.464 216.843 169.423 216.825 169.387 216.8C169.352 216.775 169.321 216.744 169.298 216.707C169.274 216.67 169.258 216.629 169.251 216.586C169.243 216.543 169.245 216.499 169.254 216.456C169.264 216.414 169.281 216.375 169.306 216.339C169.33 216.304 169.362 216.274 169.398 216.252C169.434 216.229 169.475 216.213 169.517 216.206C169.559 216.199 169.603 216.2 169.644 216.21C170.32 216.373 170.956 216.669 171.515 217.082C172.075 217.494 172.546 218.013 172.902 218.61C172.93 218.66 172.943 218.716 172.942 218.772C172.941 218.829 172.925 218.884 172.896 218.933C172.867 218.981 172.826 219.021 172.776 219.049C172.727 219.077 172.671 219.091 172.614 219.09V219.072Z" fill="#FAFAFA"/>
<path d="M174.133 217.452C174.073 217.454 174.014 217.438 173.963 217.407C173.912 217.377 173.871 217.332 173.845 217.278C173.208 216.254 172.196 215.519 171.025 215.232C170.94 215.214 170.866 215.162 170.818 215.089C170.771 215.016 170.755 214.927 170.773 214.842C170.781 214.8 170.798 214.759 170.822 214.724C170.847 214.688 170.878 214.657 170.914 214.634C170.951 214.61 170.992 214.594 171.034 214.587C171.077 214.579 171.12 214.581 171.163 214.59C171.838 214.752 172.475 215.048 173.035 215.46C173.594 215.873 174.065 216.393 174.421 216.99C174.461 217.067 174.47 217.156 174.446 217.239C174.421 217.322 174.365 217.392 174.289 217.434C174.239 217.451 174.185 217.457 174.133 217.452Z" fill="#FAFAFA"/>
<path d="M175.65 215.832C175.591 215.832 175.533 215.816 175.482 215.785C175.431 215.755 175.39 215.711 175.362 215.658C174.723 214.637 173.712 213.903 172.542 213.612C172.459 213.592 172.386 213.54 172.34 213.467C172.294 213.394 172.278 213.306 172.296 213.222C172.304 213.18 172.32 213.14 172.344 213.104C172.368 213.068 172.399 213.038 172.435 213.014C172.47 212.991 172.511 212.974 172.553 212.967C172.595 212.959 172.639 212.96 172.68 212.97C173.357 213.133 173.994 213.429 174.554 213.841C175.115 214.253 175.587 214.773 175.944 215.37C175.985 215.447 175.993 215.537 175.967 215.62C175.941 215.704 175.883 215.773 175.806 215.814C175.756 215.832 175.703 215.838 175.65 215.832Z" fill="#FAFAFA"/>
<path d="M194.557 216.402C194.508 216.146 194.519 215.882 194.589 215.631C194.659 215.38 194.786 215.148 194.96 214.954C195.134 214.76 195.351 214.609 195.593 214.512C195.836 214.416 196.097 214.377 196.357 214.398C198.457 214.398 199.957 214.458 199.771 216.018V217.134C199.771 217.134 199.771 222.696 200.191 224.496C200.611 226.296 201.643 231.996 197.359 232.83C193.075 233.664 191.515 230.01 192.295 226.548C192.778 224.597 193.072 222.604 193.171 220.596C193.267 219.33 192.781 214.698 194.173 214.398L194.557 216.402Z" fill="#1C5793"/>
<path d="M198.48 223.29C198.424 223.289 198.37 223.272 198.324 223.242C197.236 222.72 195.987 222.645 194.844 223.032C194.804 223.047 194.761 223.055 194.718 223.053C194.675 223.052 194.633 223.042 194.594 223.024C194.555 223.006 194.519 222.981 194.49 222.949C194.461 222.917 194.439 222.88 194.424 222.84C194.408 222.799 194.401 222.756 194.402 222.713C194.404 222.669 194.414 222.627 194.431 222.587C194.449 222.548 194.475 222.512 194.506 222.482C194.538 222.453 194.575 222.429 194.616 222.414C195.272 222.189 195.966 222.095 196.658 222.14C197.35 222.184 198.026 222.365 198.648 222.672C198.723 222.716 198.778 222.788 198.801 222.872C198.823 222.957 198.811 223.046 198.768 223.122C198.74 223.173 198.698 223.216 198.647 223.246C198.596 223.275 198.539 223.291 198.48 223.29Z" fill="#FAFAFA"/>
<path d="M198.708 220.8C198.652 220.798 198.597 220.783 198.546 220.758C197.462 220.233 196.214 220.155 195.072 220.542C195.032 220.564 194.987 220.578 194.941 220.581C194.894 220.585 194.848 220.578 194.805 220.562C194.761 220.546 194.722 220.521 194.689 220.488C194.656 220.456 194.63 220.416 194.614 220.373C194.597 220.33 194.59 220.283 194.593 220.237C194.596 220.191 194.609 220.146 194.631 220.105C194.653 220.064 194.683 220.029 194.72 220.001C194.757 219.972 194.799 219.953 194.844 219.942C195.499 219.714 196.192 219.619 196.884 219.663C197.575 219.707 198.251 219.89 198.87 220.2C198.908 220.221 198.941 220.249 198.968 220.282C198.995 220.316 199.015 220.354 199.026 220.396C199.038 220.437 199.041 220.48 199.036 220.523C199.031 220.566 199.018 220.607 198.996 220.644C198.966 220.693 198.924 220.733 198.873 220.76C198.823 220.788 198.766 220.801 198.708 220.8Z" fill="#FAFAFA"/>
<path d="M198.936 218.346C198.88 218.343 198.824 218.329 198.774 218.304C197.686 217.783 196.438 217.705 195.294 218.088C195.253 218.111 195.208 218.125 195.161 218.129C195.114 218.133 195.067 218.126 195.023 218.11C194.979 218.094 194.939 218.069 194.906 218.035C194.873 218.002 194.847 217.962 194.831 217.918C194.814 217.874 194.808 217.827 194.812 217.781C194.815 217.734 194.829 217.688 194.852 217.648C194.875 217.607 194.906 217.571 194.944 217.544C194.982 217.516 195.026 217.497 195.072 217.488C195.726 217.259 196.419 217.164 197.111 217.208C197.803 217.253 198.478 217.436 199.098 217.746C199.136 217.767 199.169 217.795 199.195 217.828C199.222 217.862 199.242 217.9 199.254 217.942C199.266 217.983 199.269 218.026 199.264 218.069C199.259 218.112 199.245 218.153 199.224 218.19C199.194 218.239 199.151 218.279 199.101 218.306C199.05 218.334 198.993 218.347 198.936 218.346Z" fill="#FAFAFA"/>
<path d="M168.072 217.296C167.099 217.827 166.167 218.429 165.282 219.096C163.884 220.17 163.656 223.518 167.622 224.07C169.292 224.345 171.006 224.091 172.524 223.344C172.338 222.047 171.834 220.816 171.057 219.761C170.28 218.706 169.255 217.859 168.072 217.296Z" fill="white"/>
<path d="M179.617 218.25C177.738 218.722 176.043 219.741 174.745 221.178C173.844 222.129 172.723 222.842 171.481 223.256C170.238 223.669 168.913 223.77 167.623 223.548C165.403 223.242 164.497 222.054 164.377 220.878C164.263 222.198 165.079 223.704 167.623 224.058C168.913 224.28 170.238 224.179 171.481 223.766C172.723 223.352 173.844 222.639 174.745 221.688C176.043 220.251 177.738 219.232 179.617 218.76C181.693 218.226 181.921 217.146 181.885 215.58C181.843 216.87 181.459 217.8 179.617 218.25Z" fill="#37474F"/>
<path d="M200.574 226.686C199.491 225.583 198.018 224.949 196.472 224.924C194.926 224.898 193.432 225.481 192.312 226.548C191.532 230.01 193.092 233.664 197.376 232.83C200.484 232.2 200.802 229.068 200.574 226.686Z" fill="#F5F5F5"/>
<path d="M197.4 232.152C193.956 232.824 192.276 230.592 192.15 227.892C192.006 230.892 193.668 233.556 197.4 232.83C200.166 232.29 200.718 229.734 200.652 227.502C200.562 229.548 199.86 231.666 197.4 232.152Z" fill="#455A64"/>
</svg>
