<svg width="22" height="22" viewBox="0 0 22 22" fill="none" xmlns="http://www.w3.org/2000/svg">
<path d="M11.5183 5.86524H10.4849C10.3903 5.86524 10.313 5.94258 10.313 6.03711V11.9518C10.313 12.0076 10.3388 12.0592 10.3839 12.0914L13.9352 14.6846C14.0126 14.7404 14.12 14.7254 14.1759 14.648L14.7903 13.8102C14.8483 13.7307 14.8311 13.6232 14.7538 13.5695L11.6901 11.3545V6.03711C11.6901 5.94258 11.6128 5.86524 11.5183 5.86524ZM16.2405 7.48086L19.6093 8.30371C19.7167 8.32949 19.822 8.24785 19.822 8.13828L19.8392 4.66856C19.8392 4.52461 19.6737 4.44297 19.562 4.53321L16.1761 7.17793C16.1505 7.19773 16.131 7.22435 16.1199 7.25472C16.1087 7.2851 16.1064 7.318 16.1131 7.34965C16.1199 7.38129 16.1354 7.41039 16.1579 7.43361C16.1805 7.45682 16.2091 7.4732 16.2405 7.48086ZM19.8434 13.9498L18.6253 13.5309C18.5828 13.5163 18.5363 13.5189 18.4958 13.5382C18.4552 13.5575 18.4238 13.5919 18.4083 13.634C18.3675 13.7436 18.3245 13.851 18.2794 13.9584C17.897 14.8629 17.3491 15.6772 16.6487 16.3754C15.9561 17.0702 15.1353 17.6239 14.2317 18.0061C13.2957 18.4018 12.2896 18.6049 11.2733 18.6033C10.2464 18.6033 9.25165 18.4035 8.31493 18.0061C7.41138 17.6239 6.59055 17.0702 5.89794 16.3754C5.1997 15.6772 4.65184 14.8629 4.26727 13.9584C3.87372 13.0219 3.67208 12.0159 3.67431 11C3.67431 9.97305 3.87411 8.97617 4.27157 8.03946C4.65399 7.13496 5.20185 6.32071 5.90224 5.62246C6.59485 4.9277 7.41568 4.37391 8.31923 3.9918C9.25165 3.59434 10.2485 3.39453 11.2755 3.39453C12.3024 3.39453 13.2972 3.59434 14.2339 3.9918C15.1374 4.37391 15.9583 4.9277 16.6509 5.62246C16.87 5.84375 17.0763 6.07364 17.2653 6.31641L18.5501 5.31094C16.8593 3.14961 14.2274 1.75957 11.2712 1.76172C6.12352 1.76387 1.98993 5.94473 2.04149 11.0945C2.09306 16.1541 6.20731 20.2383 11.2755 20.2383C15.2608 20.2383 18.6554 17.7117 19.9487 14.1732C19.9809 14.083 19.9337 13.982 19.8434 13.9498Z" fill="#35363D"/>
</svg>
