<svg width="40" height="40" viewBox="0 0 40 40" fill="none" xmlns="http://www.w3.org/2000/svg">
<path d="M20 22.5C22.9837 22.5 25.8452 21.3147 27.955 19.205C30.0647 17.0952 31.25 14.2337 31.25 11.25C31.25 8.26631 30.0647 5.40483 27.955 3.29505C25.8452 1.18526 22.9837 0 20 0C17.0163 0 14.1548 1.18526 12.045 3.29505C9.93526 5.40483 8.75 8.26631 8.75 11.25C8.75 14.2337 9.93526 17.0952 12.045 19.205C14.1548 21.3147 17.0163 22.5 20 22.5ZM12.6016 25C5.64062 25 0 30.6406 0 37.6016C0 38.9297 1.07812 40 2.39844 40H37.6016C38.9297 40 40 38.9219 40 37.6016C40 30.6406 34.3594 25 27.3984 25H12.6016Z" fill="#D5D5D5"/>
</svg>
