<svg width="22" height="22" viewBox="0 0 22 22" fill="none" xmlns="http://www.w3.org/2000/svg">
<path d="M6.15254 2H2.69209C2.30986 2 2 2.30986 2 2.69209V19.3023C2 19.6845 2.30986 19.9943 2.69209 19.9943H6.15254C6.53477 19.9943 6.84463 19.6845 6.84463 19.3023V2.69209C6.84463 2.30986 6.53477 2 6.15254 2Z" stroke="#35363D" stroke-width="1.2" stroke-linecap="round" stroke-linejoin="round"/>
<path d="M10.9963 4.76831H7.53584C7.15361 4.76831 6.84375 5.07817 6.84375 5.4604V19.3022C6.84375 19.6844 7.15361 19.9943 7.53584 19.9943H10.9963C11.3785 19.9943 11.6884 19.6844 11.6884 19.3022V5.4604C11.6884 5.07817 11.3785 4.76831 10.9963 4.76831Z" stroke="#35363D" stroke-width="1.2" stroke-linecap="round" stroke-linejoin="round"/>
<path d="M15.6304 4.3894L12.9448 5.06147C12.574 5.15427 12.3487 5.53008 12.4415 5.90088L15.8018 19.3286C15.8946 19.6994 16.2704 19.9248 16.6412 19.832L19.3268 19.1599C19.6976 19.0671 19.9229 18.6913 19.8301 18.3205L16.4698 4.89277C16.377 4.52198 16.0012 4.29661 15.6304 4.3894Z" stroke="#35363D" stroke-width="1.2" stroke-linecap="round" stroke-linejoin="round"/>
<path d="M2 15.1496H6.84463M6.84463 13.7654H11.6893M15.1497 16.5337L19.1362 15.5371" stroke="#35363D" stroke-width="1.2" stroke-linecap="round" stroke-linejoin="round"/>
</svg>
